/* XPM */
static char * bee_xpm[] = {
"89 144 3 1",
" 	c #FFFFFF",
".	c #000000",
"+	c #FFDD55",
"                                                                                         ",
"                                                                                         ",
"                                                                                         ",
"                                                                                         ",
"                                                                                         ",
"                                                                                         ",
"                                                                                         ",
"                                                                                         ",
"                                                                                         ",
"                                                                                         ",
"                                                                                         ",
"                                                                                         ",
"                                                                                         ",
"                                                                                         ",
"                                                                                         ",
"                                                                                         ",
"                                                                                         ",
"                                                                                         ",
"                                                                                         ",
"                                                                                         ",
"                                                                                         ",
"                                                                                         ",
"                                                                                         ",
"                                                                                         ",
"                                                                                         ",
"                                                                                         ",
"                                                                                         ",
"                                                                                         ",
"                                                                                         ",
"                                                                                         ",
"                                                                                         ",
"                                                                                         ",
"                                                                                         ",
"                                                                                         ",
"                                                              ...                        ",
"                                                              ....                       ",
"                                                              .....                      ",
"                                                              .....                      ",
"                  ....                                        ....                       ",
"                  ......                                     ....                        ",
"                 ........                                    ....                        ",
"                 ........                                    ...                         ",
"                 ........                                    ...                         ",
"                  .......                                    ..                          ",
"                      ...                                    ..                          ",
"                       ..                                   ...                          ",
"                       ...                                  ...                          ",
"                       ...                                  ..                           ",
"                        ..                                 ...                           ",
"                        ...                                ...                           ",
"                        ...                                ..                            ",
"                        ...                                ..                            ",
"                         ..         .................      ..                            ",
"                         ...      .....................   ...                            ",
"                          ..    .........+++++++++....... ...                            ",
"                          ...  .....+++++++++++++++++........                            ",
"                           ........+++++++++++++++++++......                             ",
"                           .......++++++++++++++++++++++....                             ",
"                           ......+++++++++++++++++++++++.....                            ",
"                           .....++++++++++++++++++++++++.....                            ",
"                           ....+++++++++++++++++++++++++.....                            ",
"                           ....+++++++++++++++++++++++++......                           ",
"                           ....+++++++++++++++++++++++++......                           ",
"                           .....++++++++++++++++++++++++..++...                          ",
"                          ......++++++++++++++++++++++++++++...                          ",
"                          ...+++++++++++++++++++++++++++++++...                          ",
"                          ...+++++++++++++++++++++++++++++++...                          ",
"                          ...+++++++++++++++++++++++++++++++...                          ",
"                           ..+++++++++++++++++++++++++++++++...                          ",
"                           ...++++++++++++++++++++++++++++++...                          ",
"                           ...+++++++++++++++++++++++++++++....                          ",
"                           ...++++++++++++++++++++++++++++....                           ",
"                            ...+++++++++++++++++++++++++++....                           ",
"                            ....+++++++++++++++++++++++++.......                         ",
"                            .....++++++++++++++++++++++++.........                       ",
"                            ......++++++++++++++++++++++............                     ",
"                           ........+++++++++++++++++++.....   .......                    ",
"                         ............+++++++++++++++......       .....                   ",
"                       ................++++++++++.........        ......                 ",
"                      ......      ........................          .....                ",
"                    .....        ...................    ...          .....               ",
"                   .....        .... ...............    ....          .....              ",
"                 .....         ....     ...++++....       ...           .....            ",
"                ......        ....      ...++++....       ....           ....            ",
"               .....         ....       ...+++++....       ....     ..    ....           ",
"              .....          ....      ....+++++....        ....   ......  ....          ",
"             .....  ...    ....        ....++++++...         ....  ....... ....          ",
"             .... ......   ....        ...+++++++....         ....   .....  ....         ",
"           .....  .....  ....          ...+++++++....          ....          ...         ",
"           ....   ..     ...           ...++++++++....       .   ...         ....        ",
"          .....          ..           ....++++++++....      ..   ...         ....        ",
"         ....                         ....+++...++.....     ...   ...         ....       ",
"         ....               .        ............+.....     ...   ..           ...       ",
"        ....               ..        ...................     ..    .           ....      ",
"        ...                ..       ....................     ..                ....      ",
"        ...               ...       .....................    ...                ...      ",
"       ....               ..       .......................   ...                ...      ",
"       ...               ...      ...............+++++.....   .                 ...      ",
"      ....               ..      .....+++....++++++++++.....                   .....     ",
"      ....               ..      ....++++++.++++++++++++.....                  ....      ",
"      ....              ..      ....+++++++++++++++++++++.....                ....       ",
"       ...               .     ....+++++++++++++++++++++++.....              .....       ",
"       ...                    ....+++++++++++++++++++++++++.......         ......        ",
"       ....                  .....++++++++++++++++++++++++++.....................        ",
"        ....               ......+++++++..++++++++++++....+++...................         ",
"        .....           .........++++........++++++.......+++................            ",
"         .....        ..........................++.........................              ",
"          ......................................................................         ",
"           ........................................................................      ",
"          ..........................................................   .............     ",
"         .....................................................+.....       .........     ",
"         .........       .........+++++++++++.....++++++++...++....                      ",
"         ......          ....+++++++++++++++++....+++++++++++++....                      ",
"                         ....++++++++++++++++++..++++++++++++++...                       ",
"                          ...++++++++++++++++++++++++++++++++++...                       ",
"                          ...++++++++++++++++++++++++++++++++++...                       ",
"                          ...++++++++++++++....+++++......++++.....                      ",
"                          ....+++++++++..........++........+++.........                  ",
"                       ........++...........................+................            ",
"                      .........................................................          ",
"                    .............................................     ..........         ",
"                    .....   ........................++..........        .........        ",
"                  ......     .............++++.....+++++.......               ..         ",
"                  ....        .....++++++++++++++++++++.......                           ",
"                 .....         .....+++++++++++++++++........                            ",
"                  ..            ......++++++.++++..........                              ",
"                  .              .......++................                               ",
"                                   .....................                                 ",
"                                    .................                                    ",
"                                        .........                                        ",
"                                            ....                                         ",
"                                            ....                                         ",
"                                             ...                                         ",
"                                              ..                                         ",
"                                                                                         ",
"                                                                                         ",
"                                                                                         ",
"                                                                                         ",
"                                                                                         ",
"                                                                                         ",
"                                                                                         ",
"                                                                                         ",
"                                                                                         ",
"                                                                                         "};
