/* XPM */
static char * mario_xpm[] = {
"84 108 4 1",
" 	c #FFFFFF",
".	c #FF0000",
"+	c #966025",
"@	c #E09943",
"                                                                                    ",
"                                                                                    ",
"                                                                                    ",
"                                                                                    ",
"                                                                                    ",
"                                                                                    ",
"                        ..............................                              ",
"                        ..............................                              ",
"                        ..............................                              ",
"                        ..............................                              ",
"                        ..............................                              ",
"                        ..............................                              ",
"                  ......................................................            ",
"                  ......................................................            ",
"                  ......................................................            ",
"                  ......................................................            ",
"                  ......................................................            ",
"                  ......................................................            ",
"                  ++++++++++++++++++@@@@@@@@@@@@++++++@@@@@@                        ",
"                  ++++++++++++++++++@@@@@@@@@@@@++++++@@@@@@                        ",
"                  ++++++++++++++++++@@@@@@@@@@@@++++++@@@@@@                        ",
"                  ++++++++++++++++++@@@@@@@@@@@@++++++@@@@@@                        ",
"                  ++++++++++++++++++@@@@@@@@@@@@++++++@@@@@@                        ",
"                  ++++++++++++++++++@@@@@@@@@@@@++++++@@@@@@                        ",
"            ++++++@@@@@@++++++@@@@@@@@@@@@@@@@@@++++++@@@@@@@@@@@@@@@@@@            ",
"            ++++++@@@@@@++++++@@@@@@@@@@@@@@@@@@++++++@@@@@@@@@@@@@@@@@@            ",
"            ++++++@@@@@@++++++@@@@@@@@@@@@@@@@@@++++++@@@@@@@@@@@@@@@@@@            ",
"            ++++++@@@@@@++++++@@@@@@@@@@@@@@@@@@++++++@@@@@@@@@@@@@@@@@@            ",
"            ++++++@@@@@@++++++@@@@@@@@@@@@@@@@@@++++++@@@@@@@@@@@@@@@@@@            ",
"            ++++++@@@@@@++++++@@@@@@@@@@@@@@@@@@++++++@@@@@@@@@@@@@@@@@@            ",
"            ++++++@@@@@@++++++++++++@@@@@@@@@@@@@@@@@@++++++@@@@@@@@@@@@@@@@@@      ",
"            ++++++@@@@@@++++++++++++@@@@@@@@@@@@@@@@@@++++++@@@@@@@@@@@@@@@@@@      ",
"            ++++++@@@@@@++++++++++++@@@@@@@@@@@@@@@@@@++++++@@@@@@@@@@@@@@@@@@      ",
"            ++++++@@@@@@++++++++++++@@@@@@@@@@@@@@@@@@++++++@@@@@@@@@@@@@@@@@@      ",
"            ++++++@@@@@@++++++++++++@@@@@@@@@@@@@@@@@@++++++@@@@@@@@@@@@@@@@@@      ",
"            ++++++@@@@@@++++++++++++@@@@@@@@@@@@@@@@@@++++++@@@@@@@@@@@@@@@@@@      ",
"            ++++++++++++@@@@@@@@@@@@@@@@@@@@@@@@++++++++++++++++++++++++            ",
"            ++++++++++++@@@@@@@@@@@@@@@@@@@@@@@@++++++++++++++++++++++++            ",
"            ++++++++++++@@@@@@@@@@@@@@@@@@@@@@@@++++++++++++++++++++++++            ",
"            ++++++++++++@@@@@@@@@@@@@@@@@@@@@@@@++++++++++++++++++++++++            ",
"            ++++++++++++@@@@@@@@@@@@@@@@@@@@@@@@++++++++++++++++++++++++            ",
"            ++++++++++++@@@@@@@@@@@@@@@@@@@@@@@@++++++++++++++++++++++++            ",
"                        @@@@@@@@@@@@@@@@@@@@@@@@@@@@@@@@@@@@@@@@@@                  ",
"                        @@@@@@@@@@@@@@@@@@@@@@@@@@@@@@@@@@@@@@@@@@                  ",
"                        @@@@@@@@@@@@@@@@@@@@@@@@@@@@@@@@@@@@@@@@@@                  ",
"                        @@@@@@@@@@@@@@@@@@@@@@@@@@@@@@@@@@@@@@@@@@                  ",
"                        @@@@@@@@@@@@@@@@@@@@@@@@@@@@@@@@@@@@@@@@@@                  ",
"                        @@@@@@@@@@@@@@@@@@@@@@@@@@@@@@@@@@@@@@@@@@                  ",
"                  ++++++++++++......++++++++++++++++++                              ",
"                  ++++++++++++......++++++++++++++++++                              ",
"                  ++++++++++++......++++++++++++++++++                              ",
"                  ++++++++++++......++++++++++++++++++                              ",
"                  ++++++++++++......++++++++++++++++++                              ",
"                  ++++++++++++......++++++++++++++++++                              ",
"            ++++++++++++++++++......++++++++++++......++++++++++++++++++            ",
"            ++++++++++++++++++......++++++++++++......++++++++++++++++++            ",
"            ++++++++++++++++++......++++++++++++......++++++++++++++++++            ",
"            ++++++++++++++++++......++++++++++++......++++++++++++++++++            ",
"            ++++++++++++++++++......++++++++++++......++++++++++++++++++            ",
"            ++++++++++++++++++......++++++++++++......++++++++++++++++++            ",
"      ++++++++++++++++++++++++........................++++++++++++++++++++++++      ",
"      ++++++++++++++++++++++++........................++++++++++++++++++++++++      ",
"      ++++++++++++++++++++++++........................++++++++++++++++++++++++      ",
"      ++++++++++++++++++++++++........................++++++++++++++++++++++++      ",
"      ++++++++++++++++++++++++........................++++++++++++++++++++++++      ",
"      ++++++++++++++++++++++++........................++++++++++++++++++++++++      ",
"      @@@@@@@@@@@@++++++......@@@@@@............@@@@@@......++++++@@@@@@@@@@@@      ",
"      @@@@@@@@@@@@++++++......@@@@@@............@@@@@@......++++++@@@@@@@@@@@@      ",
"      @@@@@@@@@@@@++++++......@@@@@@............@@@@@@......++++++@@@@@@@@@@@@      ",
"      @@@@@@@@@@@@++++++......@@@@@@............@@@@@@......++++++@@@@@@@@@@@@      ",
"      @@@@@@@@@@@@++++++......@@@@@@............@@@@@@......++++++@@@@@@@@@@@@      ",
"      @@@@@@@@@@@@++++++......@@@@@@............@@@@@@......++++++@@@@@@@@@@@@      ",
"      @@@@@@@@@@@@@@@@@@....................................@@@@@@@@@@@@@@@@@@      ",
"      @@@@@@@@@@@@@@@@@@....................................@@@@@@@@@@@@@@@@@@      ",
"      @@@@@@@@@@@@@@@@@@....................................@@@@@@@@@@@@@@@@@@      ",
"      @@@@@@@@@@@@@@@@@@....................................@@@@@@@@@@@@@@@@@@      ",
"      @@@@@@@@@@@@@@@@@@....................................@@@@@@@@@@@@@@@@@@      ",
"      @@@@@@@@@@@@@@@@@@....................................@@@@@@@@@@@@@@@@@@      ",
"      @@@@@@@@@@@@................................................@@@@@@@@@@@@      ",
"      @@@@@@@@@@@@................................................@@@@@@@@@@@@      ",
"      @@@@@@@@@@@@................................................@@@@@@@@@@@@      ",
"      @@@@@@@@@@@@................................................@@@@@@@@@@@@      ",
"      @@@@@@@@@@@@................................................@@@@@@@@@@@@      ",
"      @@@@@@@@@@@@................................................@@@@@@@@@@@@      ",
"                  ..................            ..................                  ",
"                  ..................            ..................                  ",
"                  ..................            ..................                  ",
"                  ..................            ..................                  ",
"                  ..................            ..................                  ",
"                  ..................            ..................                  ",
"            ++++++++++++++++++                        ++++++++++++++++++            ",
"            ++++++++++++++++++                        ++++++++++++++++++            ",
"            ++++++++++++++++++                        ++++++++++++++++++            ",
"            ++++++++++++++++++                        ++++++++++++++++++            ",
"            ++++++++++++++++++                        ++++++++++++++++++            ",
"            ++++++++++++++++++                        ++++++++++++++++++            ",
"      ++++++++++++++++++++++++                        ++++++++++++++++++++++++      ",
"      ++++++++++++++++++++++++                        ++++++++++++++++++++++++      ",
"      ++++++++++++++++++++++++                        ++++++++++++++++++++++++      ",
"      ++++++++++++++++++++++++                        ++++++++++++++++++++++++      ",
"      ++++++++++++++++++++++++                        ++++++++++++++++++++++++      ",
"      ++++++++++++++++++++++++                        ++++++++++++++++++++++++      ",
"                                                                                    ",
"                                                                                    ",
"                                                                                    ",
"                                                                                    ",
"                                                                                    ",
"                                                                                    "};
